<svg width="312" height="312" viewBox="0 0 312 312" fill="none" xmlns="http://www.w3.org/2000/svg">
<g filter="url(#filter0_n_23_21)">
<path d="M71.8577 24.5827C108.259 1.64015 147.82 -5.18432 190.121 3.86087C221.328 10.5335 252.813 29.1298 273.532 53.4632C281.331 61.6036 293.517 80.2694 297.681 90.7771C302.92 101.181 308.502 120.19 310.047 131.736C310.959 136.346 311.491 143.073 311.761 147.747C313.596 180.571 304.813 213.114 286.71 240.57C270.239 265.187 249.116 284.412 222.187 297.048C218.789 298.643 208.122 303.627 204.894 303.985C202.716 305.278 193.235 307.454 190.723 308.044C161.86 314.736 131.671 312.909 103.829 302.78C103.721 302.754 103.612 302.728 103.505 302.703C65.0261 288.827 33.3185 259.626 15.2754 223.104C10.986 214.421 8.90387 208.263 6.41982 199.731C-2.56364 169.652 -2.10926 137.547 7.72187 107.733C13.7519 87.8104 25.5347 67.9928 39.2739 52.4138C49.4335 41.7412 59.1591 32.407 71.8577 24.5827Z" fill="url(#paint0_linear_23_21)"/>
<path d="M71.8579 24.5827C108.259 1.64015 147.821 -5.18432 190.122 3.86087C221.328 10.5335 252.814 29.1298 273.533 53.4632C281.331 61.6036 293.517 80.2694 297.681 90.7771C302.921 101.181 308.502 120.19 310.047 131.736C309.627 135.526 310.331 139.285 310.343 143.089L310.212 143.203L309.659 142.133C306.879 145.658 305.074 142.936 301.905 142.247C301.509 142.594 301.271 142.797 300.843 143.101L300.489 142.575C298.868 141.925 298.509 143.115 297.078 143.205C297.381 143.186 295.401 143.054 295.493 143.06C294.704 144.111 295.561 144.015 294.93 144.701L294.618 144.291L294.167 144.695C293.954 144.403 293.658 144.094 293.419 143.824C292.124 143.537 291.172 144.907 289.79 145.479C289.328 145.008 289.36 145 288.77 144.724C288.275 144.822 288.195 144.838 287.836 145.187C285.295 147.658 279.922 148.43 276.635 149.629C275.621 149.998 274.149 150.772 273.16 151.283C272.809 150.927 272.969 150.992 272.54 150.848L272.582 151.421L272.204 151.689L272.036 150.857L271.807 150.842C271.16 151.203 271.047 151.314 270.313 151.474C270.057 151.198 270.009 151.099 269.847 150.768L269.504 150.87L269.192 151.648C269.008 151.732 262.819 152.829 262.302 152.885L261.894 152.21L261.628 152.322L261.369 153.335C259.463 151.304 260.911 151.733 257.748 152.948C257.813 152.924 256.224 152.5 256.156 152.482C255.625 153.173 255.711 152.808 255.769 153.578L255.481 153.353L254.911 153.69C254.706 153.472 254.512 153.191 254.281 153.108C253.594 153.572 253.761 153.736 253.465 154.795L253.183 154.696C252.958 153.976 253.109 154.204 252.643 153.655C251.902 154.141 251.252 154.584 250.472 155.002L250.007 154.923L249.661 155.502C248.974 155.357 248.94 155.061 248.356 154.39L247.993 154.485L247.927 154.981L248.167 155.14L247.178 155.119C246.709 155.527 246.74 155.54 246.161 155.743C246.015 155.265 245.995 155.165 245.786 154.712L245.356 154.788C245.03 155.363 245.13 155.255 244.69 155.732C244.107 155.085 244.367 155.118 243.759 155.01L243.666 155.768C242.674 155.456 242.356 155.128 241.326 155.244C240.955 155.788 240.884 155.996 240.326 156.342C239.796 156.281 240.043 156.375 239.629 155.924C238.496 155.711 233.328 157.016 232.055 157.367C231.971 157.314 231.189 156.777 231.184 156.779C229.575 157.409 229.732 158.21 228.322 156.713L227.617 157.444C226.555 157.3 225.512 157.141 224.442 157.07L223.947 157.676C222.366 157.919 221.536 156.222 220.025 157.498C219.275 158.131 217.851 156.839 216.114 157.452L216.118 157.855C215.725 157.391 215.933 157.604 215.498 157.212L215.257 157.769C214.854 157.929 206.325 155.595 203.383 157.167C202.97 156.859 202.84 156.785 202.384 156.545C201.998 156.703 201.714 156.827 201.335 157.013L201.009 157.175C200.706 156.916 200.456 156.718 200.137 156.479C198.374 157.273 198.425 157.621 196.686 156.64L196.427 156.493C195.977 156.786 196.023 156.735 195.781 157.173C195.164 157.04 194.391 156.414 193.774 156.028C193.251 156.258 192.786 156.45 192.254 156.655C192.037 156.123 192.2 156.35 191.767 155.976C189.228 156.348 186.857 156.258 184.344 156.538L184.199 157.037L184.077 156.9L183.644 157.097C182.947 156.832 182.231 156.762 181.468 156.485L181.217 155.851C180.865 155.974 180.665 156.069 180.328 156.222C180.052 155.724 180.127 155.833 179.746 155.376C174.715 156.823 175.739 154.717 172.121 155.139C167.529 155.674 163.309 153.824 158.797 154.009C155.821 154.132 155.193 153.372 153.62 153.224C152.783 153.715 153.269 153.963 152.436 154.403C152.348 153.795 152.406 153.411 152.156 152.891L151.916 152.887C151.302 153.49 151.162 153.601 150.455 154.099C149.249 154.044 149.2 152.774 147.684 152.477C147.155 152.788 147.773 153.07 147.121 153.879L146.718 153.101C145.852 153.47 146.232 153.507 145.52 153.283L145.675 152.799L145.52 152.527C144.792 152.829 144.27 153.123 143.487 153.138C143.095 152.578 143.257 152.734 142.727 152.315C142.22 152.518 142.103 152.631 141.655 152.954C141.286 152.703 141.304 152.687 141.088 152.312L138.714 152.642C137.942 152.273 137.744 152.186 136.932 151.941L136.347 152.654L134.958 151.987L133.983 152.385C133.905 152.355 133.828 152.324 133.752 152.295L133.365 152.15C130.612 151.111 128.263 151.349 125.446 150.951C123.899 150.733 123.949 149.357 121.487 149.73C121.294 149.759 118.808 149.202 118.287 149.143L118.192 149.599L117.975 149.707C117.394 149.198 116.66 148.37 115.893 148.542C116.014 149.105 116.032 149.068 115.829 149.604C114.975 148.876 116.094 149.492 115.612 148.526C115.097 148.779 114.734 148.966 114.196 149.167C113.822 148.581 113.956 148.711 113.458 148.255C110.898 150.124 111.083 148.509 107.692 148.131L107.402 148.534C106.354 148.299 106.896 147.601 105.693 146.805L105.471 147.035L105.542 147.727L105.331 147.824L104.774 147.083L104.45 147.206C104.008 147.78 103.998 147.812 103.436 148.26L103.175 148.148C103.095 147.591 103.078 147.561 102.872 147.034C102.216 147.001 102.538 146.956 101.923 147.328L101.587 146.79L101.23 147.022L101.157 147.806C99.8189 147.343 101.294 147.577 100.49 146.678C100.081 147.173 100.09 147.292 100.042 147.928L99.5936 147.75C99.1313 147.025 98.833 146.305 98.0735 146.035C97.103 146.096 96.6301 146.421 95.8576 146.981C95.2078 146.246 95.2137 145.976 94.4566 145.832C94.1536 146.382 94.2007 146.428 93.6476 146.685C93.6028 146.064 93.6665 145.768 93.2785 145.307C90.6216 144.145 89.6841 144.921 87.046 144.593C86.2181 144.49 85.1285 142.992 83.79 142.908C83.5294 143.377 83.5989 143.284 83.244 143.702C79.712 142.38 76.5421 140.646 72.7896 140.448C72.753 140.445 72.2377 139.749 71.4664 139.557L70.7931 140.514L70.5513 140.311C70.7093 139.727 70.7706 139.692 70.6869 139.105C69.9982 138.904 70.1161 139.47 68.892 139.503C69.0088 139.011 69.0253 139.241 68.8897 138.813L66.5523 138.747C66.5158 138.473 66.4804 138.198 66.4438 137.923C65.8224 137.687 65.5358 137.9 64.748 138.072C64.0015 137.441 62.393 136.546 61.4767 136.586C59.7655 136.664 57.8728 134.416 56.4447 133.851C53.9375 132.862 53.4328 134.394 51.9492 131.757C51.1768 131.445 51.8101 131.663 51.2322 131.527C45.0869 130.072 38.2872 125.394 32.6431 122.379L32.3368 122.586L32.0584 121.934L30.9793 122.185L30.7738 121.929L31.0272 121.405C29.6456 120.611 29.0404 119.33 28.3835 119.066L28.5381 119.785C29.6819 120.239 25.1928 117.872 26.742 119.024C24.3825 117.27 24.7588 116.041 21.9837 116.934C21.9839 116.109 22.0723 115.958 21.5991 115.29C21.0939 114.956 20.7541 115.067 20.1244 115.114L19.8633 115.135C18.875 114.099 19.0202 114.235 17.6997 113.769L17.2213 112.704L16.9075 112.669C16.7825 113.285 16.8718 113.084 16.559 113.619C15.9983 113.186 15.4582 112.692 14.8029 112.458C14.7016 112.9 14.6255 113.334 14.5766 113.784C13.8143 112.996 14.2441 113.182 13.3518 112.966C12.946 114.599 11.3311 114.832 10.2898 116.373L9.77245 116.27C9.26111 115.605 9.11453 115.327 8.39021 114.877C6.14815 115.045 7.20585 116.672 5.71782 118.126C5.51758 116.792 8.17558 111.155 7.72215 107.733C13.7522 87.8104 25.5349 67.9928 39.2742 52.4138C49.4338 41.7412 59.1594 32.407 71.8579 24.5827Z" fill="#794175"/>
<path d="M71.8576 24.5827C108.259 1.64015 147.82 -5.18432 190.121 3.86087C221.328 10.5335 252.813 29.1297 273.532 53.4632C273.61 56.1566 279.958 61.8391 281.227 64.7175C281.165 64.7481 281.101 64.7788 281.038 64.8094C280.161 64.6068 278.851 65.9789 278.021 66.2238C276.247 66.7456 273.998 69.5698 272.749 70.2505C269.849 71.8298 265.347 73.7531 262.257 74.9025L262.324 75.3512L262.088 75.5444C261.969 74.9708 262.073 75.2193 261.814 74.7836C260.536 76.1933 260.886 76.1556 259.105 76.2228C258.888 76.8976 258.884 76.92 258.516 77.523L258.045 76.8776C257.811 77.371 257.887 77.1826 257.707 77.6678L257.589 77.994C256.973 77.5524 257.256 77.5854 256.645 77.5489C256.509 77.9034 256.426 78.1083 256.276 78.4439C256.153 78.2143 256.095 77.9917 256.029 77.7408L255.718 77.7514L255.269 78.749L253.763 78.7961C253.423 79.2848 253.398 79.3967 253.136 79.9432C252.882 79.7324 252.626 79.5239 252.368 79.3166C250.864 80.5368 246.693 81.3989 245.995 82.4518C245.623 82.3281 245.825 82.3764 245.389 82.321C245.009 82.7144 244.637 83.1148 244.273 83.5235C243.832 83.5082 243.472 83.5188 243.03 83.5341C242.686 84.0134 242.708 84.0452 242.221 84.3597L241.657 83.8132C241.064 83.6848 240.953 84.4551 240.69 84.481C239.984 84.5517 234.169 86.2075 233.979 86.3477L234.277 86.9448C233.054 87.6526 234.117 86.3559 233.284 86.6845C231.826 87.2616 229.013 88.603 227.623 88.9246C222.586 90.0858 217.569 91.2682 212.541 92.3506C205.648 93.8345 198.638 95.7036 191.637 96.4408C190.65 96.5445 189.266 96.2594 188.273 96.0722L188.099 96.7341C186.232 95.9839 187.021 96.9696 185.817 97.005C184.772 97.0368 184.042 95.8743 182.469 96.515C180.488 97.403 178.017 96.091 176.018 96.2241C167.744 96.7753 160.276 96.0322 152.093 94.9745L151.669 95.5505C147.907 94.4811 143.905 93.6755 140.116 92.4624C138.08 91.8123 134.86 92.0891 132.62 91.2894C131.493 90.8867 128.919 89.5923 128.172 89.537L127.903 89.9445C127.315 89.8538 126.999 89.1471 126.318 88.9034C124.858 88.3781 121.895 88.3604 120.794 87.4171C118.53 85.4762 114.144 84.4162 111.315 83.2138C108.828 82.1573 106.427 80.9914 103.984 79.8443C102.743 79.2625 102.403 78.3544 101.368 77.6666C100.221 76.9058 98.2783 76.8034 97.4764 75.6421C94.6473 71.5448 93.6154 73.3856 92.1059 72.0666C91.6401 71.6602 91.922 70.7334 91.6578 70.2799C91.4868 69.9843 87.6152 68.1612 86.851 67.524C85.8486 66.6902 84.9583 65.5466 84.0632 64.588C81.694 62.057 79.4062 59.3683 76.971 56.9139C75.1749 55.1025 65.6757 40.368 65.4953 38.1468C65.4316 37.3754 65.6675 36.399 65.6722 35.5841C65.2323 35.2331 65.4788 35.345 64.888 35.3403C64.2453 34.6207 64.3856 33.2651 64.4068 32.3208C64.0082 32.1578 63.6521 31.9658 63.29 31.7312L63.3997 31.9227L63.349 31.6887C65.4882 30.1349 70.6665 26.5797 71.8576 24.5827Z" fill="url(#paint1_linear_23_21)"/>
<path d="M71.8575 24.5828C70.6664 26.5798 65.4882 30.135 63.349 31.6888L63.3997 31.9228L63.29 31.7313C63.652 31.9659 64.0082 32.1579 64.4068 32.3209C64.3856 33.2652 64.2452 34.6208 64.8879 35.3404C65.4788 35.3451 65.2323 35.2332 65.6722 35.5842C65.6674 36.3991 65.4316 37.3755 65.4953 38.1469C65.6757 40.3681 75.1749 55.1027 76.9709 56.914C79.4061 59.3684 81.694 62.0571 84.0631 64.5881C84.9582 65.5468 85.8486 66.6903 86.851 67.5242C87.6152 68.1613 91.4868 69.9844 91.6578 70.28C91.9219 70.7335 91.6401 71.6603 92.1059 72.0667C93.6154 73.3857 94.6473 71.5449 97.4764 75.6422C98.2783 76.8035 100.221 76.9059 101.368 77.6668C102.403 78.3545 102.743 79.2626 103.984 79.8444C106.427 80.9915 108.828 82.1574 111.315 83.2139C114.144 84.4163 118.53 85.4763 120.794 87.4172C121.895 88.3605 124.858 88.3782 126.318 88.9035C126.999 89.1473 127.315 89.8539 127.903 89.9446L128.172 89.5371C128.919 89.5924 131.493 90.8868 132.62 91.2895C134.86 92.0892 138.08 91.8124 140.116 92.4626C143.905 93.6756 147.907 94.4812 151.669 95.5506L152.093 94.9747C160.276 96.0323 167.744 96.7754 176.018 96.2242C178.017 96.0911 180.488 97.4031 182.469 96.5151C184.042 95.8744 184.772 97.0369 185.817 97.0051C187.021 96.9697 186.232 95.984 188.099 96.7342L188.273 96.0723C189.266 96.2596 190.65 96.5446 191.637 96.4409C198.638 95.7037 205.648 93.8346 212.541 92.3507C217.569 91.2683 222.586 90.0859 227.623 88.9247C229.013 88.6031 231.826 87.2617 233.284 86.6846C234.117 86.356 233.054 87.6527 234.277 86.9449L233.979 86.3478C234.169 86.2076 239.984 84.5518 240.69 84.4811C240.953 84.4552 241.064 83.685 241.657 83.8133L242.221 84.3598C242.708 84.0453 242.686 84.0135 243.03 83.5342C243.472 83.5189 243.832 83.5083 244.273 83.5236C244.637 83.1149 245.009 82.7145 245.389 82.3211C245.825 82.3765 245.623 82.3282 245.995 82.4519C246.693 81.399 250.864 80.5369 252.368 79.3167C252.626 79.524 252.882 79.7325 253.136 79.9433C253.398 79.3968 253.423 79.285 253.763 78.7962L255.269 78.7491L255.718 77.7516L256.029 77.7409C256.095 77.9918 256.153 78.2144 256.276 78.4441C256.425 78.1084 256.509 77.9035 256.645 77.549C257.256 77.5855 256.973 77.5525 257.589 77.9942L257.707 77.6679C257.887 77.1827 257.811 77.3711 258.045 76.8777L258.516 77.5231C258.884 76.9201 258.888 76.8977 259.105 76.2229C260.886 76.1557 260.536 76.1934 261.814 74.7837C262.073 75.2194 261.969 74.9709 262.088 75.5445L262.324 75.3513L262.257 74.9026C265.347 73.7532 269.849 71.8299 272.749 70.2506C273.998 69.5699 276.247 66.7457 278.021 66.2239C278.851 65.979 280.161 64.6069 281.038 64.8095C281.101 64.7789 281.165 64.7483 281.227 64.7176C279.958 61.8393 273.61 56.1567 273.532 53.4633C281.331 61.6037 293.516 80.2695 297.681 90.7772V92.7499C297.103 92.3801 294.123 84.3775 292.811 83.6284C291.666 84.3669 292.38 85.3703 291.209 86.23L290.494 86.0781C288.992 86.8707 287.621 88.1167 285.836 88.9777C283.511 90.0989 280.883 90.7372 278.64 92.028C270.447 96.7412 259.644 99.8446 250.513 102.332C249.479 102.125 243.82 105.293 243.273 105.176C239.999 104.481 238.589 106.805 235.424 107.363C230.346 108.257 225.283 109.441 220.184 110.232C218.463 110.499 217.719 111.191 216.096 111.635C208.253 112.246 200.469 113.552 192.646 113.916C190.214 113.872 187.612 114.675 185.214 114.571C177.842 114.253 169.843 114.67 162.564 113.635C160.396 113.327 160.989 113.723 159.563 113.651C154.259 113.383 148.953 112.855 143.667 112.364C141.38 112.105 139.702 111.396 137.21 111.314L136.839 111.304C135.13 109.59 135.797 111.243 134.359 111.105C134.092 110.912 133.719 110.336 133.384 110.317C130.699 110.167 128.124 109.423 125.509 108.838C121.956 108.042 118.388 106.481 114.768 106.041C113.447 106.287 112.61 105.131 111.589 104.884C105.231 103.349 99.4375 99.4382 93.2144 97.8401C89.6542 96.9261 88.6624 94.5342 85.2601 93.3458C84.3733 93.0373 82.9511 91.2307 81.9982 90.7796C79.879 89.2862 77.6455 87.7257 75.6018 86.1382C73.9496 84.8544 69.3103 82.8959 68.7572 81.0586L68.6923 80.8348L68.4789 81.101C67.8479 81.0669 65.4457 79.4263 64.6898 78.9905L65.0625 78.5359C60.85 75.0345 57.3829 71.5873 54.0102 67.2921C53.338 66.4383 51.7483 65.2511 51.2129 64.4126C49.9664 62.4623 48.9086 60.3 47.6727 58.332C46.7587 57.1484 44.0334 53.0711 42.6584 52.5435C41.7067 52.1772 40.2196 52.8956 39.4436 53.5151C39.1299 53.15 39.2797 53.1476 39.2738 52.4139C49.4334 41.7413 59.1589 32.4071 71.8575 24.5828Z" fill="#B5607B"/>
<path d="M103.829 302.78L104.001 302.216C104.602 302.092 112.903 304.941 114.164 305.293C115.108 303.856 113.933 304.08 114.773 302.854C115.893 302.752 117.275 302.926 118.419 303.023L118.429 302.734L118.101 302.458C119.535 301.843 120.731 301.871 122.273 301.327C125.105 300.328 127.842 299.106 130.273 297.302C130.508 297.146 132.391 297.572 132.4 297.567C132.774 297.341 134.557 295.913 134.942 295.92C138.166 295.981 140.841 296.06 144.01 295.266C145.766 294.826 145.754 294.472 147.39 295.214C147.813 295.044 149.701 294.166 149.884 294.145C151.449 293.965 152.205 295.25 153.834 294.079C154.715 293.461 155.23 293.671 156.155 293.699C162.31 293.88 168.436 294.933 174.349 296.615C175.408 296.916 175.464 296.586 176.181 295.783C176.871 295.73 176.548 295.671 177.142 296.074L176.918 296.94C178.311 298.001 179.344 296.398 179.792 298.233L180.278 297.942C180.46 298.484 180.643 298.95 180.754 299.511L180.97 299.244L180.874 298.61C182.976 296.94 183.824 296.977 185.134 299.025C186.233 299.315 187.734 299.126 188.318 299.316C190.089 299.896 197.387 302.024 197.506 303.995C198.469 304.727 198.577 304.077 199.575 304.861C200.75 304.339 203.523 303.402 204.775 303.464L204.894 303.985C202.716 305.278 193.234 307.454 190.723 308.044C161.859 314.736 131.671 312.908 103.829 302.78Z" fill="#007084"/>
</g>
<defs>
<filter id="filter0_n_23_21" x="0" y="0" width="312" height="312" filterUnits="userSpaceOnUse" color-interpolation-filters="sRGB">
<feFlood flood-opacity="0" result="BackgroundImageFix"/>
<feBlend mode="normal" in="SourceGraphic" in2="BackgroundImageFix" result="shape"/>
<feTurbulence type="fractalNoise" baseFrequency="2 2" stitchTiles="stitch" numOctaves="3" result="noise" seed="7867" />
<feColorMatrix in="noise" type="luminanceToAlpha" result="alphaNoise" />
<feComponentTransfer in="alphaNoise" result="coloredNoise1">
<feFuncA type="discrete" tableValues="1 1 1 1 1 1 1 1 1 1 1 1 1 1 1 1 1 1 1 1 1 1 1 1 1 1 1 1 1 1 1 1 1 1 1 1 1 1 1 1 1 1 1 1 1 1 1 1 1 1 1 0 0 0 0 0 0 0 0 0 0 0 0 0 0 0 0 0 0 0 0 0 0 0 0 0 0 0 0 0 0 0 0 0 0 0 0 0 0 0 0 0 0 0 0 0 0 0 0 0 "/>
</feComponentTransfer>
<feComposite operator="in" in2="shape" in="coloredNoise1" result="noise1Clipped" />
<feFlood flood-color="rgba(0, 0, 0, 0.25)" result="color1Flood" />
<feComposite operator="in" in2="noise1Clipped" in="color1Flood" result="color1" />
<feMerge result="effect1_noise_23_21">
<feMergeNode in="shape" />
<feMergeNode in="color1" />
</feMerge>
</filter>
<linearGradient id="paint0_linear_23_21" x1="159.565" y1="124.858" x2="138.415" y2="307.995" gradientUnits="userSpaceOnUse">
<stop stop-color="#581C5F"/>
<stop offset="1" stop-color="#004C69"/>
</linearGradient>
<linearGradient id="paint1_linear_23_21" x1="164.016" y1="97.4132" x2="179.728" y2="2.60088" gradientUnits="userSpaceOnUse">
<stop stop-color="#DE697C"/>
<stop offset="1" stop-color="#FFA284"/>
</linearGradient>
</defs>
</svg>
